name C:\Users\u0150099\Documents\master_thesis\3dpredictsim\Results\debug\Fal_s1_mtp_sc_MTc_MTPp_k17_d05_ig21.mot
datacolumns 126
datarows 4
range 0.00000000 0.03335230
endheader
time	pelvis_tilt	pelvis_list	pelvis_rotation	pelvis_tx	pelvis_ty	pelvis_tz	hip_flexion_l	hip_adduction_l	hip_rotation_l	hip_flexion_r	hip_adduction_r	hip_rotation_r	knee_angle_l	knee_angle_r	ankle_angle_l	ankle_angle_r	subtalar_angle_l	subtalar_angle_r	mtj_angle_l	mtj_angle_r	mtp_angle_l	mtp_angle_r	lumbar_extension	lumbar_bending	lumbar_rotation	arm_flex_l	arm_add_l	arm_rot_l	arm_flex_r	arm_add_r	arm_rot_r	elbow_flex_l	elbow_flex_r	glut_med1_l/activation	glut_med2_l/activation	glut_med3_l/activation	glut_min1_l/activation	glut_min2_l/activation	glut_min3_l/activation	semimem_l/activation	semiten_l/activation	bifemlh_l/activation	bifemsh_l/activation	sar_l/activation	add_long_l/activation	add_brev_l/activation	add_mag1_l/activation	add_mag2_l/activation	add_mag3_l/activation	tfl_l/activation	pect_l/activation	grac_l/activation	glut_max1_l/activation	glut_max2_l/activation	glut_max3_l/activation	iliacus_l/activation	psoas_l/activation	quad_fem_l/activation	gem_l/activation	peri_l/activation	rect_fem_l/activation	vas_med_l/activation	vas_int_l/activation	vas_lat_l/activation	med_gas_l/activation	lat_gas_l/activation	soleus_l/activation	tib_post_l/activation	flex_dig_l/activation	flex_hal_l/activation	tib_ant_l/activation	per_brev_l/activation	per_long_l/activation	per_tert_l/activation	ext_dig_l/activation	ext_hal_l/activation	ercspn_l/activation	intobl_l/activation	extobl_l/activation	glut_med1_r/activation	glut_med2_r/activation	glut_med3_r/activation	glut_min1_r/activation	glut_min2_r/activation	glut_min3_r/activation	semimem_r/activation	semiten_r/activation	bifemlh_r/activation	bifemsh_r/activation	sar_r/activation	add_long_r/activation	add_brev_r/activation	add_mag1_r/activation	add_mag2_r/activation	add_mag3_r/activation	tfl_r/activation	pect_r/activation	grac_r/activation	glut_max1_r/activation	glut_max2_r/activation	glut_max3_r/activation	iliacus_r/activation	psoas_r/activation	quad_fem_r/activation	gem_r/activation	peri_r/activation	rect_fem_r/activation	vas_med_r/activation	vas_int_r/activation	vas_lat_r/activation	med_gas_r/activation	lat_gas_r/activation	soleus_r/activation	tib_post_r/activation	flex_dig_r/activation	flex_hal_r/activation	tib_ant_r/activation	per_brev_r/activation	per_long_r/activation	per_tert_r/activation	ext_dig_r/activation	ext_hal_r/activation	ercspn_r/activation	intobl_r/activation	extobl_r/activation	
          0.00000000	         -2.93016171	         -2.38313584	          6.02945056	          0.00000000	          0.91246016	         -0.00428507	        -18.57711355	         -1.79983572	          7.51048270	         29.77509121	          2.95202867	         -2.64481181	         -5.37547665	        -10.12042959	         -0.92015240	          5.97694476	         13.77333109	         -1.31094102	         24.00802088	         -0.18220420	         -3.60927523	          1.10584446	         -2.19633816	          8.98608883	        -13.61446754	         19.38494081	        -10.25712049	        -13.55652293	          3.96424771	         40.92636734	         19.44047486	         86.51662706	         86.51662706	          0.21707624	          0.11697629	          0.08715459	          0.34176151	          0.24284353	          0.14153544	          0.05000211	          0.05000050	          0.05000035	          0.07920831	          0.12937369	          0.06101268	          0.05000042	          0.05000055	          0.05000127	          0.05000101	          0.62402464	          0.05000720	          0.05000103	          0.05000458	          0.05000251	          0.05000142	          0.46537186	          0.74822203	          0.05000023	          0.05000184	          0.06983313	          0.35378828	          0.05000097	          0.05000093	          0.05000092	          0.29568502	          0.39818357	          0.25051475	          0.32852502	          0.50916807	          0.65812889	          0.05000005	          0.16701187	          0.16834734	          0.05000037	          0.05000009	          0.05000034	          0.05000003	          0.05000003	          0.05000006	          0.07024509	          0.05000306	          0.05000027	          0.05000099	          0.05000124	          0.05000968	          0.24463634	          0.05926574	          0.33276209	          0.05000276	          0.05000313	          0.12953404	          0.12765297	          0.15116852	          0.16904057	          0.15101366	          0.05000312	          0.05320169	          0.10621802	          0.05926484	          0.05926695	          0.09395646	          0.05000027	          0.05000024	          0.18595914	          0.05000109	          0.05000140	          0.05000034	          0.06306345	          0.07846008	          0.05276131	          0.05060988	          0.05000299	          0.05926452	          0.05000392	          0.05000264	          0.05000877	          0.50649148	          0.24528985	          0.14550163	          0.24271332	          0.40956126	          0.20721693	          0.07247221	          0.08112590	          0.10220305	
          0.01111743	         -2.92859269	         -2.53353712	          6.35623581	          0.01781789	          0.91135187	         -0.00391122	        -18.36290612	         -2.17039326	          7.43020344	         29.23221746	          3.42298521	         -2.55327901	         -7.47447407	         -9.86965173	         -1.96147447	          5.56278864	         14.60818560	         -1.70086780	         25.09107386	         -0.10411876	         -3.43305521	          1.34792084	         -2.34358741	          8.69360251	        -13.55888997	         19.34999445	        -11.27336563	        -13.49563214	          3.63757587	         42.28396558	         19.12438419	         86.51662706	         86.51662706	          0.18314196	          0.09869003	          0.07353023	          0.28833589	          0.20488115	          0.11941001	          0.05000173	          0.05000036	          0.05000028	          0.06682612	          0.10914961	          0.14342017	          0.17791789	          0.05000224	          0.05000360	          0.05000096	          0.56806868	          0.12372262	          0.05007932	          0.05000380	          0.05000234	          0.05000167	          0.39262273	          0.69745423	          0.06185162	          0.05000370	          0.05891685	          0.33324542	          0.08784221	          0.09710914	          0.06693587	          0.24946207	          0.33593756	          0.21135305	          0.27921606	          0.44050520	          0.59261296	          0.05000005	          0.14090403	          0.15681824	          0.05000018	          0.05000005	          0.05000024	          0.05499381	          0.05000027	          0.05000009	          0.05926434	          0.05000345	          0.29320396	          0.05926456	          0.05926448	          0.05000225	          0.22563363	          0.05000134	          0.29925387	          0.05000035	          0.05000105	          0.16440189	          0.35843617	          0.25349432	          0.22579560	          0.15945955	          0.05000024	          0.09868146	          0.08961949	          0.05000079	          0.05000227	          0.21446134	          0.05926441	          0.05000612	          0.16987556	          0.24399730	          0.11239081	          0.05449197	          0.14724958	          0.14708750	          0.12709681	          0.05000004	          0.05000008	          0.05000004	          0.05000007	          0.05000065	          0.05000037	          0.62409005	          0.20694523	          0.12275620	          0.56506527	          0.46297153	          0.34146381	          0.06114301	          0.06844391	          0.08622618	
          0.02223486	         -2.92241626	         -2.68125194	          6.65512068	          0.03595784	          0.91021973	         -0.00352388	        -18.05302063	         -2.52587849	          7.33164241	         28.62797551	          3.85364687	         -2.41596230	         -9.72873302	        -10.26212410	         -3.21004829	          4.91866589	         15.40021186	         -2.07872436	         26.00599907	         -0.04255195	         -3.23493330	          1.58763403	         -2.48023694	          8.28899231	        -13.50657718	         19.22889412	        -12.28906676	        -13.45922461	          3.62913169	         43.66453812	         18.79863274	         86.51662706	         86.51662706	          0.15451242	          0.08326238	          0.06203573	          0.24326203	          0.17285323	          0.10074333	          0.05000435	          0.05000075	          0.05000113	          0.05637958	          0.09208697	          0.19642064	          0.20120277	          0.26274832	          0.06801702	          0.05931101	          0.48520787	          0.10438252	          0.05000175	          0.05862522	          0.05926401	          0.05926636	          0.33124604	          0.63451914	          0.05926543	          0.05926709	          0.05926469	          0.28115092	          0.13865087	          0.13865073	          0.13864946	          0.21046492	          0.28342215	          0.17831329	          0.23556769	          0.37164372	          0.49997305	          0.05000003	          0.11887752	          0.15560746	          0.05000012	          0.05000004	          0.05000017	          0.08627166	          0.06728978	          0.05201965	          0.05000003	          0.05000013	          0.24736923	          0.05000011	          0.05000012	          0.05000022	          0.19036158	          0.06902557	          0.25247306	          0.05000067	          0.05000095	          0.13870204	          0.37098808	          0.43287995	          0.31951918	          0.18718463	          0.05000095	          0.08325709	          0.20194410	          0.12692886	          0.13078833	          0.18093699	          0.05000016	          0.05000034	          0.48898116	          0.20585452	          0.09482140	          0.05000189	          0.12423131	          0.12409461	          0.10722886	          0.05926680	          0.05984672	          0.05000040	          0.05926450	          0.05000673	          0.05926391	          0.52652970	          0.25491629	          0.14192533	          0.49334459	          0.45368655	          0.28808477	          0.05158484	          0.05774443	          0.07274689	
          0.03335230	         -2.91201868	         -2.83653818	          6.92175001	          0.05428380	          0.90907159	         -0.00314087	        -17.64743094	         -2.87090434	          7.21124830	         27.94544635	          4.18960400	         -2.24692943	        -12.11475367	        -11.00435325	         -4.67613041	          4.34823906	         16.11142576	         -2.47236099	         26.68723796	         -0.22855288	         -3.02460825	          1.83247008	         -2.60366322	          7.79519267	        -13.46518732	         19.06982845	        -13.27230695	        -13.44974821	          3.89989060	         45.06782944	         18.44380982	         86.51662706	         86.51662706	          0.22050127	          0.07024644	          0.05233805	          0.23327623	          0.14583212	          0.08499471	          0.05000341	          0.05000045	          0.05000029	          0.05000049	          0.07769176	          0.16571563	          0.22788958	          0.22167439	          0.05738517	          0.05003962	          0.56336602	          0.08806681	          0.05000494	          0.05000315	          0.05000237	          0.05000228	          0.27946406	          0.58573290	          0.05000096	          0.05000267	          0.05000035	          0.23720003	          0.11697637	          0.11697624	          0.11697517	          0.17756400	          0.23911620	          0.15043847	          0.19874262	          0.31354675	          0.42181491	          0.05522087	          0.14985622	          0.16163686	          0.05000052	          0.11553204	          0.05000142	          0.09139932	          0.05677072	          0.05000008	          0.31866219	          0.30024631	          0.39034787	          0.43331613	          0.23533811	          0.13443342	          0.16060355	          0.10392363	          0.21300528	          0.06514450	          0.05000787	          0.11701955	          0.31299355	          0.36521032	          0.26957110	          0.22285800	          0.05000049	          0.07024358	          0.17037587	          0.23730378	          0.19303673	          0.21063148	          0.05000181	          0.05000058	          0.41254140	          0.17367458	          0.14720181	          0.05000014	          0.10481106	          0.10469572	          0.09046649	          0.05000213	          0.05049137	          0.05051651	          0.05000010	          0.05000036	          0.05000040	          0.63952292	          0.22409956	          0.11973902	          0.70901271	          0.51139884	          0.35697661	          0.08062232	          0.08304937	          0.06137476	
